<?xml version="1.0" encoding="UTF-8"?>
<svg id="Layer_2" data-name="Layer 2" xmlns="http://www.w3.org/2000/svg" viewBox="0 0 531.01 56.71">
  <defs>
    <style>
      .cls-1 {
        fill: #fff;
      }
    </style>
  </defs>
  <g id="Layer_1-2" data-name="Layer 1">
    <g>
      <g>
        <path class="cls-1" d="M13.04,13.76c.99.11,2,.33,3.05.66,1.04.33,2.02.8,2.92,1.42.9.62,1.64,1.41,2.2,2.37.56.96.85,2.13.85,3.52,0,1.98-.52,3.57-1.55,4.79-1.03,1.21-2.46,2.1-4.28,2.67-1.82.57-3.92.85-6.29.85H0l.08-.51c.96,0,1.72-.09,2.29-.28.56-.18.98-.57,1.25-1.16.27-.59.44-1.5.51-2.71.07-1.21.11-2.85.11-4.91v-10.5c0-2.06-.04-3.7-.11-4.91-.07-1.21-.24-2.12-.51-2.71-.27-.59-.69-.98-1.25-1.16-.56-.18-1.33-.28-2.29-.28l-.08-.51h9.49c.62,0,1.38.04,2.27.13.89.08,1.81.25,2.75.51.95.25,1.84.63,2.67,1.12.83.49,1.5,1.14,2.01,1.95s.76,1.8.76,2.99c0,1.41-.37,2.57-1.1,3.47-.73.9-1.63,1.61-2.69,2.12-1.06.51-2.1.88-3.11,1.1ZM16.26,7.07c0-1.07-.27-2.04-.8-2.9-.54-.86-1.46-1.55-2.77-2.05s-3.14-.76-5.48-.76v12.11h.38c1.5,0,2.9-.18,4.21-.53,1.31-.35,2.39-.99,3.22-1.91.83-.92,1.25-2.24,1.25-3.96ZM8.85,29.05c.4,0,.97-.04,1.74-.11.76-.07,1.59-.23,2.48-.47.89-.24,1.74-.62,2.54-1.14.8-.52,1.47-1.24,1.99-2.16s.78-2.07.78-3.45c0-1.69-.37-3.04-1.1-4.04-.73-1-1.66-1.74-2.77-2.22-1.12-.48-2.27-.79-3.47-.93-1.2-.14-2.27-.21-3.2-.21h-.64v6.78c0,1.95.04,3.46.11,4.53.07,1.07.22,1.86.44,2.35.23.49.59.85,1.1,1.08Z"/>
        <path class="cls-1" d="M48.28,28.16c0-.65-.19-1.55-.57-2.71-.38-1.16-.94-2.72-1.67-4.7h-12.92c-.59,1.75-1.04,3.19-1.36,4.32-.31,1.13-.47,2.02-.47,2.67,0,.82.27,1.32.8,1.5.54.18,1.34.28,2.41.28l.08.51h-9.53l.08-.51c.73,0,1.38-.08,1.93-.25.55-.17,1.07-.54,1.55-1.1.48-.56.99-1.44,1.52-2.63.54-1.19,1.16-2.81,1.86-4.87l3.77-10.88c.56-1.61.99-2.87,1.27-3.79.28-.92.47-1.63.57-2.14.1-.51.15-.95.15-1.31,0-.65-.2-1.09-.59-1.33-.4-.24-1.16-.36-2.29-.36l-.08-.47h6.99l7.5,20.29c.76,2.06,1.39,3.68,1.88,4.87.49,1.19.95,2.06,1.38,2.63.42.56.88.93,1.36,1.1.48.17,1.1.25,1.86.25l.08.51h-10.59l.08-.51c.99,0,1.72-.08,2.2-.23.48-.15.72-.53.72-1.12ZM39.43,2.67l-5.97,17.07h12.24l-6.27-17.07Z"/>
        <path class="cls-1" d="M86.61,25.5v1.27c-1.38,1.04-2.99,1.92-4.81,2.63s-4.1,1.06-6.84,1.06c-2.32,0-4.4-.4-6.27-1.19s-3.45-1.88-4.76-3.26c-1.31-1.38-2.32-3-3.03-4.85-.71-1.85-1.06-3.83-1.06-5.95,0-2.82.59-5.38,1.76-7.67,1.17-2.29,2.86-4.11,5.06-5.48,2.2-1.37,4.86-2.05,7.96-2.05,1.55,0,3.07.16,4.55.47,1.48.31,2.8.66,3.94,1.06,1.14.4,1.98.75,2.52,1.06v5.42l-.47-.08c-.73-2.65-2.01-4.47-3.81-5.46-1.81-.99-4.05-1.48-6.73-1.48-2.48,0-4.55.61-6.18,1.84-1.64,1.23-2.87,2.92-3.69,5.06-.82,2.15-1.23,4.59-1.23,7.33s.44,5.08,1.31,7.2c.88,2.12,2.17,3.78,3.88,5,1.71,1.21,3.79,1.82,6.25,1.82,1.92,0,3.57-.17,4.96-.51,1.38-.34,2.61-.79,3.69-1.35,1.07-.56,2.08-1.19,3.01-1.86Z"/>
        <path class="cls-1" d="M103.21,14.91c1.72.08,3.18.5,4.38,1.25,1.2.75,2.24,1.68,3.11,2.79.88,1.12,1.68,2.28,2.41,3.49.73,1.21,1.5,2.36,2.29,3.43.79,1.07,1.69,1.95,2.71,2.63,1.02.68,2.25,1.02,3.69,1.02l.08.51h-5.89c-.73,0-1.48-.35-2.22-1.04-.75-.69-1.5-1.58-2.27-2.67-.76-1.09-1.55-2.24-2.37-3.45-.82-1.21-1.67-2.37-2.56-3.47-.89-1.1-1.83-2.01-2.82-2.73-.99-.72-2.05-1.09-3.18-1.12v4.91c0,2.06.04,3.7.11,4.91.07,1.21.24,2.12.51,2.71.27.59.68.98,1.23,1.16.55.18,1.31.28,2.27.28l.08.51h-11.39l.08-.51c.96,0,1.72-.09,2.27-.28.55-.18.96-.57,1.23-1.16.27-.59.44-1.5.53-2.71.08-1.21.13-2.85.13-4.91v-10.5c0-2.06-.04-3.7-.13-4.91-.08-1.21-.26-2.12-.53-2.73-.27-.61-.68-1-1.23-1.19-.55-.18-1.31-.28-2.27-.28l-.08-.47h11.39l-.08.47c-.96,0-1.72.09-2.27.28-.55.18-.96.58-1.23,1.19-.27.61-.44,1.52-.51,2.73-.07,1.21-.11,2.85-.11,4.91v4.83c.73-.14,1.57-.5,2.5-1.08.93-.58,1.88-1.32,2.84-2.22.96-.9,1.84-1.88,2.65-2.94.8-1.06,1.45-2.13,1.95-3.22.49-1.09.74-2.11.74-3.07,0-.48-.14-.83-.42-1.06-.28-.23-.83-.34-1.65-.34l-.08-.47h10.5l-.08.47c-1.44,0-2.63.2-3.56.59-.93.4-1.71.93-2.33,1.61-.62.68-1.21,1.48-1.76,2.39-.55.92-1.18,1.9-1.88,2.94-.71,1.04-1.59,2.12-2.65,3.24-1.06,1.12-2.44,2.21-4.13,3.28Z"/>
        <path class="cls-1" d="M125.07.38h8.56c1.19,0,2.5.04,3.94.11,1.44.07,2.92.25,4.43.53,1.51.28,2.97.74,4.38,1.38,1.41.64,2.67,1.49,3.79,2.56,1.11,1.07,2,2.45,2.67,4.13.66,1.68,1,3.72,1,6.12s-.33,4.38-1,6.04c-.66,1.65-1.54,3.02-2.63,4.11s-2.28,1.95-3.58,2.58c-1.3.64-2.6,1.1-3.92,1.4s-2.52.49-3.62.57c-1.1.08-1.98.13-2.63.13h-11.39l.08-.51c.96,0,1.72-.09,2.27-.28.55-.18.96-.57,1.23-1.16.27-.59.44-1.5.53-2.71.08-1.21.13-2.85.13-4.91v-10.5c0-2.06-.04-3.7-.13-4.91-.08-1.21-.26-2.12-.53-2.73-.27-.61-.68-1-1.23-1.19-.55-.18-1.31-.28-2.27-.28l-.08-.47ZM133.83,29.01c.25.03.53.04.83.04h.87c1.21,0,2.49-.12,3.83-.36,1.34-.24,2.65-.66,3.94-1.25,1.28-.59,2.44-1.42,3.47-2.48,1.03-1.06,1.85-2.39,2.46-3.98.61-1.6.91-3.52.91-5.78s-.3-4.14-.91-5.74c-.61-1.59-1.42-2.92-2.44-3.96-1.02-1.04-2.16-1.87-3.43-2.48-1.27-.61-2.58-1.04-3.92-1.29-1.34-.25-2.63-.38-3.88-.38s-2.37.08-3.3.25v19.35c0,1.95.03,3.46.08,4.53.06,1.07.2,1.86.42,2.37.23.51.58.89,1.06,1.14Z"/>
        <path class="cls-1" d="M188.25,29.52l.08.51h-5.89c-.76,0-1.47-.35-2.12-1.04-.65-.69-1.28-1.59-1.88-2.71-.61-1.12-1.24-2.29-1.91-3.54-.66-1.24-1.4-2.42-2.2-3.54-.8-1.12-1.72-2.05-2.75-2.8-1.03-.75-2.24-1.15-3.62-1.21v5.25c0,2.06.04,3.7.13,4.91.08,1.21.27,2.12.55,2.71s.7.98,1.25,1.16c.55.18,1.31.28,2.27.28l.08.51h-11.35l.08-.51c.96,0,1.72-.09,2.27-.28.55-.18.95-.57,1.21-1.16.25-.59.42-1.5.49-2.71.07-1.21.11-2.85.11-4.91v-10.71c0-2.06-.04-3.68-.11-4.87-.07-1.19-.23-2.06-.49-2.63-.25-.56-.66-.93-1.21-1.1-.55-.17-1.31-.25-2.27-.25l-.08-.51h9.83c1.21,0,2.44.09,3.69.28,1.24.18,2.39.53,3.45,1.04,1.06.51,1.91,1.24,2.56,2.18.65.95.97,2.18.97,3.71,0,1.44-.35,2.7-1.06,3.79-.71,1.09-1.62,1.96-2.75,2.63-1.13.66-2.34,1.07-3.64,1.21,1.1.65,2.05,1.45,2.84,2.39.79.95,1.5,1.96,2.12,3.03.62,1.07,1.23,2.13,1.82,3.18.59,1.04,1.23,2,1.91,2.86.68.86,1.47,1.55,2.37,2.08.9.52,1.99.78,3.26.78ZM167.97,1.36v13h2.67c1.33,0,2.56-.23,3.68-.68,1.13-.45,2.04-1.16,2.73-2.14.69-.97,1.04-2.27,1.04-3.88,0-2.12-.64-3.7-1.93-4.74-1.29-1.04-3.1-1.57-5.44-1.57h-2.75Z"/>
        <path class="cls-1" d="M220.82,14.91c0,2.88-.58,5.5-1.74,7.86-1.16,2.36-2.83,4.23-5.02,5.61-2.19,1.38-4.84,2.08-7.94,2.08-2.32,0-4.4-.4-6.25-1.21-1.85-.8-3.43-1.91-4.74-3.32-1.31-1.41-2.32-3.06-3.01-4.96-.69-1.89-1.04-3.91-1.04-6.06,0-2.88.59-5.44,1.76-7.69,1.17-2.24,2.85-4.01,5.04-5.29,2.19-1.28,4.82-1.93,7.9-1.93s5.78.64,8.03,1.93c2.24,1.29,3.97,3.05,5.19,5.29,1.21,2.24,1.82,4.81,1.82,7.69ZM217.14,15.2c0-2.74-.43-5.18-1.29-7.33-.86-2.15-2.13-3.83-3.81-5.06-1.68-1.23-3.76-1.84-6.25-1.84s-4.5.61-6.14,1.84c-1.64,1.23-2.86,2.92-3.66,5.06-.8,2.15-1.21,4.59-1.21,7.33s.43,5.19,1.29,7.35c.86,2.16,2.14,3.85,3.83,5.08,1.69,1.23,3.77,1.84,6.23,1.84s4.54-.61,6.16-1.84c1.62-1.23,2.84-2.92,3.64-5.08.8-2.16,1.21-4.61,1.21-7.35Z"/>
        <path class="cls-1" d="M227.81.38h11.1c1.41,0,2.79.13,4.13.38,1.34.25,2.55.69,3.62,1.31,1.07.62,1.92,1.49,2.54,2.6.62,1.12.93,2.53.93,4.26s-.42,3.19-1.25,4.49c-.83,1.3-1.93,2.31-3.3,3.03-1.37.72-2.87,1.08-4.51,1.08-1.47,0-2.68-.12-3.62-.36-.95-.24-1.76-.51-2.44-.83v4.11c0,2.06.04,3.7.13,4.91.08,1.21.26,2.12.53,2.71.27.59.68.98,1.23,1.16.55.18,1.31.28,2.27.28l.08.51h-11.44l.08-.51c.96,0,1.72-.09,2.27-.28.55-.18.96-.57,1.23-1.16.27-.59.44-1.5.53-2.71.08-1.21.13-2.85.13-4.91v-10.5c0-2.06-.04-3.7-.13-4.91-.08-1.21-.26-2.12-.53-2.71-.27-.59-.68-.98-1.23-1.16-.55-.18-1.31-.28-2.27-.28l-.08-.51ZM235.01,1.36v13.93c.73.4,1.62.69,2.65.89,1.03.2,1.93.3,2.69.3,1.19,0,2.27-.26,3.24-.78.97-.52,1.76-1.33,2.35-2.44.59-1.1.89-2.54.89-4.32,0-1.67-.28-3-.83-4-.55-1-1.27-1.76-2.16-2.29-.89-.52-1.87-.87-2.94-1.04-1.07-.17-2.12-.25-3.13-.25h-2.75Z"/>
        <path class="cls-1" d="M297.9,29.52l.09.51h-5.89c-.76,0-1.47-.35-2.12-1.04-.65-.69-1.28-1.59-1.88-2.71-.61-1.12-1.24-2.29-1.9-3.54-.66-1.24-1.4-2.42-2.2-3.54-.8-1.12-1.72-2.05-2.75-2.8-1.03-.75-2.24-1.15-3.62-1.21v5.25c0,2.06.04,3.7.13,4.91.08,1.21.27,2.12.55,2.71s.7.98,1.25,1.16c.55.18,1.31.28,2.27.28l.08.51h-11.35l.08-.51c.96,0,1.72-.09,2.27-.28.55-.18.95-.57,1.21-1.16.25-.59.42-1.5.49-2.71.07-1.21.11-2.85.11-4.91v-10.71c0-2.06-.04-3.68-.11-4.87-.07-1.19-.23-2.06-.49-2.63-.25-.56-.66-.93-1.21-1.1-.55-.17-1.31-.25-2.27-.25l-.08-.51h9.83c1.21,0,2.44.09,3.69.28,1.24.18,2.39.53,3.45,1.04s1.91,1.24,2.56,2.18c.65.95.97,2.18.97,3.71,0,1.44-.35,2.7-1.06,3.79-.71,1.09-1.62,1.96-2.75,2.63-1.13.66-2.34,1.07-3.64,1.21,1.1.65,2.05,1.45,2.84,2.39.79.95,1.5,1.96,2.12,3.03.62,1.07,1.23,2.13,1.82,3.18.59,1.04,1.23,2,1.9,2.86.68.86,1.47,1.55,2.37,2.08.9.52,1.99.78,3.26.78ZM277.62,1.36v13h2.67c1.33,0,2.56-.23,3.68-.68,1.13-.45,2.04-1.16,2.73-2.14s1.04-2.27,1.04-3.88c0-2.12-.64-3.7-1.93-4.74-1.29-1.04-3.1-1.57-5.44-1.57h-2.75Z"/>
        <path class="cls-1" d="M322.21,23.97l.51-.08v6.14h-21.35l.08-.51c.96,0,1.72-.09,2.27-.28.55-.18.96-.57,1.23-1.16s.44-1.5.53-2.71c.08-1.21.13-2.85.13-4.91v-10.5c0-2.06-.04-3.7-.13-4.91-.08-1.21-.26-2.12-.53-2.73-.27-.61-.68-1-1.23-1.19-.55-.18-1.31-.28-2.27-.28l-.08-.47h19.78v6.1l-.51-.08c0-1.98-1.05-3.31-3.16-4-2.1-.69-5.09-1.04-8.96-1.04v13.34c2,0,3.58-.07,4.74-.21,1.16-.14,2.02-.37,2.58-.7.56-.32.92-.79,1.08-1.4.16-.61.23-1.38.23-2.31l.47-.08v10.29l-.47-.08c0-.93-.08-1.7-.23-2.31-.16-.61-.51-1.07-1.08-1.4-.57-.32-1.43-.55-2.58-.68-1.16-.13-2.74-.19-4.74-.19v5.46c0,1.95.04,3.46.13,4.53.08,1.07.25,1.86.49,2.35.24.49.61.85,1.12,1.08,2.34,0,4.41-.17,6.2-.51s3.2-.88,4.21-1.63c1.02-.75,1.52-1.73,1.52-2.94Z"/>
        <path class="cls-1" d="M351.6.38h10.5l-.08.47c-.96,0-1.74.09-2.35.28-.61.18-1.07.57-1.4,1.16-.33.59-.55,1.5-.68,2.71-.13,1.21-.19,2.85-.19,4.91v20.33h-1.31l-19.95-25.2v15.33c0,2.06.06,3.71.19,4.93.13,1.23.35,2.15.68,2.75.32.61.78,1,1.38,1.19.59.18,1.37.28,2.33.28l.08.51h-10.42l.08-.51c.96,0,1.74-.09,2.35-.28.61-.18,1.07-.58,1.4-1.19.32-.61.55-1.52.68-2.75.13-1.23.19-2.87.19-4.93v-10.46c0-2.06-.06-3.7-.19-4.91-.13-1.21-.35-2.12-.68-2.71s-.79-.98-1.4-1.16c-.61-.18-1.39-.28-2.35-.28l-.08-.47h5.76l20.2,25.2v-15.67c0-2.06-.06-3.7-.19-4.91-.13-1.21-.36-2.12-.7-2.71s-.81-.98-1.42-1.16c-.61-.18-1.39-.28-2.35-.28l-.08-.47Z"/>
        <path class="cls-1" d="M367.78.38h24.39v6.1l-.51-.08c0-1.84-.88-3.16-2.62-3.96-1.75-.8-4.26-1.21-7.54-1.21v19.23c0,2.06.04,3.7.13,4.91.08,1.21.28,2.12.59,2.71s.8.98,1.48,1.16c.68.18,1.59.28,2.75.28l.08.51h-13.04l.08-.51c1.19,0,2.11-.09,2.77-.28.66-.18,1.15-.57,1.46-1.16.31-.59.51-1.5.59-2.71.08-1.21.13-2.85.13-4.91V1.23c-3.25,0-5.77.4-7.56,1.21-1.79.8-2.69,2.12-2.69,3.96l-.51.08V.38Z"/>
        <path class="cls-1" d="M415.98,28.16c0-.65-.19-1.55-.57-2.71-.38-1.16-.94-2.72-1.67-4.7h-12.92c-.59,1.75-1.04,3.19-1.36,4.32-.31,1.13-.47,2.02-.47,2.67,0,.82.27,1.32.8,1.5.54.18,1.34.28,2.41.28l.08.51h-9.53l.08-.51c.74,0,1.38-.08,1.93-.25s1.07-.54,1.55-1.1c.48-.56.99-1.44,1.52-2.63.54-1.19,1.16-2.81,1.86-4.87l3.77-10.88c.56-1.61.99-2.87,1.27-3.79s.47-1.63.57-2.14c.1-.51.15-.95.15-1.31,0-.65-.2-1.09-.59-1.33-.4-.24-1.16-.36-2.29-.36l-.08-.47h6.99l7.5,20.29c.76,2.06,1.39,3.68,1.88,4.87.49,1.19.95,2.06,1.38,2.63.42.56.88.93,1.36,1.1.48.17,1.1.25,1.86.25l.08.51h-10.59l.08-.51c.99,0,1.72-.08,2.2-.23.48-.15.72-.53.72-1.12ZM407.13,2.67l-5.97,17.07h12.24l-6.27-17.07Z"/>
        <path class="cls-1" d="M447.36,23.97l.47-.08v6.14h-20.24l.08-.51c.96,0,1.71-.09,2.27-.28.55-.18.96-.57,1.23-1.16s.44-1.5.51-2.71c.07-1.21.11-2.85.11-4.91v-10.5c0-2.06-.04-3.7-.11-4.91-.07-1.21-.24-2.12-.51-2.73-.27-.61-.68-1-1.23-1.19-.55-.18-1.31-.28-2.27-.28l-.08-.47h11.39l-.08.47c-.96,0-1.71.09-2.27.28-.55.18-.96.58-1.23,1.19-.27.61-.44,1.52-.53,2.73-.08,1.21-.13,2.85-.13,4.91v11.14c0,1.95.04,3.47.11,4.57.07,1.1.23,1.91.47,2.41.24.51.61.88,1.12,1.1,3.39,0,6.06-.41,8-1.23,1.95-.82,2.92-2.15,2.92-3.98Z"/>
        <path class="cls-1" d="M495.14,25.5v1.27c-1.38,1.04-2.99,1.92-4.81,2.63s-4.1,1.06-6.84,1.06c-2.32,0-4.4-.4-6.27-1.19-1.86-.79-3.45-1.88-4.76-3.26-1.31-1.38-2.32-3-3.03-4.85-.71-1.85-1.06-3.83-1.06-5.95,0-2.82.59-5.38,1.76-7.67,1.17-2.29,2.86-4.11,5.06-5.48,2.2-1.37,4.86-2.05,7.96-2.05,1.55,0,3.07.16,4.55.47,1.48.31,2.8.66,3.94,1.06,1.14.4,1.98.75,2.52,1.06v5.42l-.47-.08c-.73-2.65-2-4.47-3.81-5.46-1.81-.99-4.05-1.48-6.73-1.48-2.48,0-4.55.61-6.18,1.84-1.64,1.23-2.87,2.92-3.68,5.06-.82,2.15-1.23,4.59-1.23,7.33s.44,5.08,1.31,7.2c.88,2.12,2.17,3.78,3.88,5,1.71,1.21,3.79,1.82,6.25,1.82,1.92,0,3.57-.17,4.96-.51,1.38-.34,2.61-.79,3.68-1.35,1.07-.56,2.08-1.19,3.01-1.86Z"/>
        <path class="cls-1" d="M531.01,14.91c0,2.88-.58,5.5-1.74,7.86-1.16,2.36-2.83,4.23-5.02,5.61-2.19,1.38-4.83,2.08-7.94,2.08-2.32,0-4.4-.4-6.25-1.21-1.85-.8-3.43-1.91-4.74-3.32-1.31-1.41-2.32-3.06-3.01-4.96-.69-1.89-1.04-3.91-1.04-6.06,0-2.88.59-5.44,1.76-7.69,1.17-2.24,2.85-4.01,5.04-5.29,2.19-1.28,4.82-1.93,7.9-1.93s5.78.64,8.03,1.93c2.25,1.29,3.97,3.05,5.19,5.29,1.21,2.24,1.82,4.81,1.82,7.69ZM527.32,15.2c0-2.74-.43-5.18-1.29-7.33-.86-2.15-2.13-3.83-3.81-5.06-1.68-1.23-3.76-1.84-6.25-1.84s-4.5.61-6.14,1.84c-1.64,1.23-2.86,2.92-3.66,5.06-.8,2.15-1.21,4.59-1.21,7.33s.43,5.19,1.29,7.35c.86,2.16,2.14,3.85,3.83,5.08,1.69,1.23,3.77,1.84,6.23,1.84s4.54-.61,6.16-1.84c1.62-1.23,2.84-2.92,3.64-5.08.8-2.16,1.21-4.61,1.21-7.35Z"/>
      </g>
      <g>
        <path class="cls-1" d="M20.16,56.42v-10.88c0-.11.05-.16.16-.16h.82c.11,0,.16.05.16.16v9.98s.02.06.06.06h3.66c.11,0,.16.05.16.16v.67c0,.11-.05.16-.16.16h-4.7c-.11,0-.16-.05-.16-.16Z"/>
        <path class="cls-1" d="M42.19,56.43l-.4-1.98s0-.04-.02-.05-.03-.02-.06-.02h-2.9s-.04,0-.06.02-.02.03-.02.05l-.4,1.98c-.01.1-.07.14-.18.14h-.82c-.05,0-.09-.02-.12-.05-.03-.03-.03-.07-.02-.13l2.4-10.88c.02-.1.08-.14.18-.14h.96c.11,0,.17.05.18.14l2.43,10.88v.03c0,.1-.05.14-.14.14h-.83c-.1,0-.15-.05-.18-.14ZM38.99,53.46h2.53s.05-.02.05-.06l-1.28-6.29s-.02-.05-.03-.05-.02.02-.03.05l-1.28,6.29s.02.06.05.06Z"/>
        <path class="cls-1" d="M60.54,46.37h-3.68s-.06.02-.06.06v3.97s.02.06.06.06h2.32c.11,0,.16.05.16.16v.69c0,.11-.05.16-.16.16h-2.32s-.06.02-.06.06v4.88c0,.11-.05.16-.16.16h-.82c-.11,0-.16-.05-.16-.16v-10.88c0-.11.05-.16.16-.16h4.72c.11,0,.16.05.16.16v.67c0,.11-.05.16-.16.16Z"/>
        <path class="cls-1" d="M76.67,56.43l-.4-1.98s0-.04-.02-.05-.03-.02-.06-.02h-2.9s-.04,0-.06.02-.02.03-.02.05l-.4,1.98c-.01.1-.07.14-.18.14h-.82c-.05,0-.09-.02-.12-.05-.03-.03-.03-.07-.02-.13l2.4-10.88c.02-.1.08-.14.18-.14h.96c.11,0,.17.05.18.14l2.43,10.88v.03c0,.1-.05.14-.14.14h-.83c-.1,0-.15-.05-.18-.14ZM73.47,53.46h2.53s.05-.02.05-.06l-1.28-6.29s-.02-.05-.03-.05-.02.02-.03.05l-1.28,6.29s.02.06.05.06Z"/>
        <path class="cls-1" d="M91.26,56.4v-4.78s0-.07-.02-.08l-2.22-5.97-.02-.06c0-.09.05-.13.14-.13h.86c.1,0,.16.04.19.13l1.57,4.69s.03.03.05.03.04-.01.05-.03l1.57-4.69c.03-.09.1-.13.19-.13h.86c.05,0,.09.02.12.06.03.04.03.08,0,.14l-2.21,5.97s-.02.04-.02.08v4.78c0,.11-.05.16-.16.16h-.82c-.11,0-.16-.05-.16-.16Z"/>
        <path class="cls-1" d="M111.9,46.37h-3.71s-.06.02-.06.06v3.97s.02.06.06.06h2.34c.11,0,.16.05.16.16v.69c0,.11-.05.16-.16.16h-2.34s-.06.02-.06.06v3.98s.02.06.06.06h3.71c.11,0,.16.05.16.16v.67c0,.11-.05.16-.16.16h-4.75c-.11,0-.16-.05-.16-.16v-10.88c0-.11.05-.16.16-.16h4.75c.11,0,.16.05.16.16v.67c0,.11-.05.16-.16.16Z"/>
        <path class="cls-1" d="M129.89,45.54v.67c0,.11-.05.16-.16.16h-2.11s-.06.02-.06.06v9.98c0,.11-.05.16-.16.16h-.82c-.11,0-.16-.05-.16-.16v-9.98s-.02-.06-.06-.06h-1.98c-.11,0-.16-.05-.16-.16v-.67c0-.11.05-.16.16-.16h5.36c.11,0,.16.05.16.16Z"/>
        <path class="cls-1" d="M147.62,45.54v.67c0,.11-.05.16-.16.16h-2.11s-.06.02-.06.06v9.98c0,.11-.05.16-.16.16h-.82c-.11,0-.16-.05-.16-.16v-9.98s-.02-.06-.06-.06h-1.98c-.11,0-.16-.05-.16-.16v-.67c0-.11.05-.16.16-.16h5.36c.11,0,.16.05.16.16Z"/>
        <path class="cls-1" d="M165.18,46.37h-3.71s-.06.02-.06.06v3.97s.02.06.06.06h2.34c.11,0,.16.05.16.16v.69c0,.11-.05.16-.16.16h-2.34s-.06.02-.06.06v3.98s.02.06.06.06h3.71c.11,0,.16.05.16.16v.67c0,.11-.05.16-.16.16h-4.75c-.11,0-.16-.05-.16-.16v-10.88c0-.11.05-.16.16-.16h4.75c.11,0,.16.05.16.16v.67c0,.11-.05.16-.16.16Z"/>
        <path class="cls-1" d="M196.96,55.78c-.52.53-1.22.8-2.1.8h-2.45c-.11,0-.16-.05-.16-.16v-10.88c0-.11.05-.16.16-.16h2.3c.92,0,1.64.25,2.16.76.52.51.78,1.23.78,2.17,0,1.19-.44,2.01-1.33,2.45-.02.01-.03.02-.03.03s0,.02.02.03c.94.54,1.41,1.45,1.41,2.72.01.96-.25,1.71-.77,2.24ZM193.39,46.43v3.86s.02.06.06.06h1.26c.58,0,1.02-.17,1.34-.51s.48-.82.48-1.44-.16-1.14-.48-1.5-.77-.54-1.34-.54h-1.26s-.06.02-.06.06ZM196.11,55c.32-.38.48-.91.48-1.59s-.16-1.23-.48-1.62c-.32-.38-.76-.58-1.33-.58h-1.33s-.06.02-.06.06v4.22s.02.06.06.06h1.33c.56,0,1.01-.19,1.33-.57Z"/>
        <path class="cls-1" d="M214.11,56.43l-.4-1.98s0-.04-.02-.05-.03-.02-.06-.02h-2.9s-.04,0-.06.02-.02.03-.02.05l-.4,1.98c-.01.1-.07.14-.18.14h-.82c-.05,0-.09-.02-.12-.05-.03-.03-.03-.07-.02-.13l2.4-10.88c.02-.1.08-.14.18-.14h.96c.11,0,.17.05.18.14l2.43,10.88v.03c0,.1-.05.14-.14.14h-.83c-.1,0-.15-.05-.18-.14ZM210.91,53.46h2.53s.05-.02.05-.06l-1.28-6.29s-.02-.05-.03-.05-.02.02-.03.05l-1.28,6.29s.02.06.05.06Z"/>
        <path class="cls-1" d="M227.88,55.95c-.5-.5-.74-1.17-.74-2.02v-5.94c0-.83.25-1.5.74-2,.5-.5,1.15-.75,1.98-.75s1.5.25,1.99.74c.5.5.74,1.17.74,2.01v.27c0,.11-.05.16-.16.16l-.83.05c-.11,0-.16-.05-.16-.16v-.4c0-.5-.14-.91-.43-1.22-.29-.31-.67-.46-1.15-.46s-.85.15-1.14.46c-.29.31-.44.71-.44,1.22v6.11c0,.5.15.91.44,1.22.29.31.67.46,1.14.46s.86-.15,1.15-.46c.29-.31.43-.71.43-1.22v-.4c0-.11.05-.16.16-.16l.83.05c.11,0,.16.05.16.16v.26c0,.84-.25,1.51-.75,2.02s-1.16.75-1.98.75-1.48-.25-1.98-.75Z"/>
        <path class="cls-1" d="M245.5,56.42v-10.88c0-.11.05-.16.16-.16h.82c.11,0,.16.05.16.16v5.18s.01.05.03.06.04,0,.05-.03l3.09-5.26c.05-.07.12-.11.19-.11h.9c.06,0,.11.02.13.06.02.04.02.08-.02.14l-2.5,4.34s-.03.07-.02.1l2.75,6.38.02.06c0,.09-.05.13-.14.13h-.91c-.09,0-.14-.04-.18-.13l-2.3-5.44s-.04-.04-.08,0l-.99,1.54s-.02.04-.02.08v3.79c0,.11-.05.16-.16.16h-.82c-.11,0-.16-.05-.16-.16Z"/>
        <path class="cls-1" d="M263.69,56.42v-10.88c0-.11.05-.16.16-.16h2.46c.82,0,1.48.27,1.97.81.49.54.74,1.26.74,2.17v5.25c0,.91-.25,1.63-.74,2.17-.49.54-1.15.81-1.97.81h-2.46c-.11,0-.16-.05-.16-.16ZM264.89,55.59l1.41-.02c.47,0,.85-.18,1.13-.54.28-.36.43-.85.44-1.47v-5.15c0-.63-.14-1.13-.42-1.49-.28-.36-.66-.54-1.15-.54h-1.41s-.06.02-.06.06v9.09s.02.06.06.06Z"/>
        <path class="cls-1" d="M286.38,56.45l-1.63-4.94s-.03-.05-.06-.05h-1.39s-.06.02-.06.06v4.9c0,.11-.05.16-.16.16h-.82c-.11,0-.16-.05-.16-.16v-10.88c0-.11.05-.16.16-.16h2.64c.78,0,1.41.29,1.89.86.48.57.72,1.31.72,2.23,0,.69-.15,1.29-.45,1.79s-.7.85-1.22,1.06c-.04.01-.06.04-.05.08l1.74,5.01.02.06c0,.07-.05.11-.14.11h-.83c-.1,0-.16-.04-.19-.13ZM283.23,46.43v4.05s.02.06.06.06h1.44c.49,0,.89-.19,1.18-.57.3-.38.45-.88.45-1.51s-.15-1.14-.45-1.52c-.3-.38-.69-.58-1.18-.58h-1.44s-.06.02-.06.06Z"/>
        <path class="cls-1" d="M300.63,55.94c-.51-.51-.76-1.19-.76-2.03v-5.86c0-.84.25-1.52.76-2.03.51-.51,1.17-.77,1.99-.77s1.5.26,2.02.77c.51.51.77,1.19.77,2.03v5.86c0,.83-.26,1.51-.77,2.02-.51.52-1.18.78-2.02.78s-1.49-.26-1.99-.77ZM303.81,55.23c.3-.33.46-.74.46-1.26v-5.97c0-.52-.15-.95-.46-1.27-.3-.33-.7-.49-1.19-.49s-.87.16-1.17.49c-.3.33-.45.75-.45,1.27v5.97c0,.51.15.93.45,1.26.3.33.69.49,1.17.49s.89-.16,1.19-.49Z"/>
        <path class="cls-1" d="M323.07,46.22c.48.57.72,1.32.72,2.25s-.23,1.66-.7,2.22-1.09.84-1.86.84h-1.65s-.06.02-.06.06v4.83c0,.11-.05.16-.16.16h-.82c-.11,0-.16-.05-.16-.16v-10.9c0-.11.05-.16.16-.16h2.64c.78,0,1.41.29,1.89.86ZM322.21,50.02c.3-.38.45-.9.45-1.54s-.15-1.15-.45-1.54c-.3-.39-.69-.58-1.17-.58h-1.46s-.06.02-.06.06v4.11s.02.06.06.06h1.46c.48,0,.87-.19,1.17-.58Z"/>
        <path class="cls-1" d="M351.06,55.95c-.5-.5-.74-1.17-.74-2.02v-5.94c0-.83.25-1.5.74-2,.5-.5,1.15-.75,1.98-.75s1.5.25,1.99.74.74,1.17.74,2.01v.27c0,.11-.05.16-.16.16l-.83.05c-.11,0-.16-.05-.16-.16v-.4c0-.5-.14-.91-.43-1.22-.29-.31-.67-.46-1.15-.46s-.85.15-1.14.46c-.29.31-.44.71-.44,1.22v6.11c0,.5.15.91.44,1.22.29.31.67.46,1.14.46s.86-.15,1.15-.46c.29-.31.43-.71.43-1.22v-.4c0-.11.05-.16.16-.16l.83.05c.11,0,.16.05.16.16v.26c0,.84-.25,1.51-.75,2.02-.5.5-1.16.75-1.98.75s-1.48-.25-1.98-.75Z"/>
        <path class="cls-1" d="M369.17,55.94c-.51-.51-.76-1.19-.76-2.03v-5.86c0-.84.25-1.52.76-2.03.51-.51,1.17-.77,1.99-.77s1.5.26,2.02.77c.51.51.77,1.19.77,2.03v5.86c0,.83-.26,1.51-.77,2.02-.51.52-1.18.78-2.02.78s-1.49-.26-1.99-.77ZM372.36,55.23c.3-.33.46-.74.46-1.26v-5.97c0-.52-.15-.95-.46-1.27-.3-.33-.7-.49-1.19-.49s-.87.16-1.17.49c-.3.33-.45.75-.45,1.27v5.97c0,.51.15.93.45,1.26.3.33.69.49,1.17.49s.89-.16,1.19-.49Z"/>
        <path class="cls-1" d="M386.94,56.42v-10.88c0-.11.05-.16.16-.16h.82c.11,0,.16.05.16.16v9.98s.02.06.06.06h3.66c.11,0,.16.05.16.16v.67c0,.11-.05.16-.16.16h-4.7c-.11,0-.16-.05-.16-.16Z"/>
        <path class="cls-1" d="M404.24,56.42v-10.88c0-.11.05-.16.16-.16h.82c.11,0,.16.05.16.16v9.98s.02.06.06.06h3.66c.11,0,.16.05.16.16v.67c0,.11-.05.16-.16.16h-4.7c-.11,0-.16-.05-.16-.16Z"/>
        <path class="cls-1" d="M426.45,46.37h-3.71s-.06.02-.06.06v3.97s.02.06.06.06h2.34c.11,0,.16.05.16.16v.69c0,.11-.05.16-.16.16h-2.34s-.06.02-.06.06v3.98s.02.06.06.06h3.71c.11,0,.16.05.16.16v.67c0,.11-.05.16-.16.16h-4.75c-.11,0-.16-.05-.16-.16v-10.88c0-.11.05-.16.16-.16h4.75c.11,0,.16.05.16.16v.67c0,.11-.05.16-.16.16Z"/>
        <path class="cls-1" d="M439.83,55.95c-.5-.5-.74-1.17-.74-2.02v-5.94c0-.83.25-1.5.74-2,.5-.5,1.15-.75,1.98-.75s1.5.25,1.99.74.74,1.17.74,2.01v.27c0,.11-.05.16-.16.16l-.83.05c-.11,0-.16-.05-.16-.16v-.4c0-.5-.14-.91-.43-1.22-.29-.31-.67-.46-1.15-.46s-.85.15-1.14.46c-.29.31-.44.71-.44,1.22v6.11c0,.5.15.91.44,1.22.29.31.67.46,1.14.46s.86-.15,1.15-.46c.29-.31.43-.71.43-1.22v-.4c0-.11.05-.16.16-.16l.83.05c.11,0,.16.05.16.16v.26c0,.84-.25,1.51-.75,2.02-.5.5-1.16.75-1.98.75s-1.48-.25-1.98-.75Z"/>
        <path class="cls-1" d="M462.52,45.54v.67c0,.11-.05.16-.16.16h-2.11s-.06.02-.06.06v9.98c0,.11-.05.16-.16.16h-.82c-.11,0-.16-.05-.16-.16v-9.98s-.02-.06-.06-.06h-1.98c-.11,0-.16-.05-.16-.16v-.67c0-.11.05-.16.16-.16h5.36c.11,0,.16.05.16.16Z"/>
        <path class="cls-1" d="M475.18,56.42v-10.88c0-.11.05-.16.16-.16h.82c.11,0,.16.05.16.16v10.88c0,.11-.05.16-.16.16h-.82c-.11,0-.16-.05-.16-.16Z"/>
        <path class="cls-1" d="M491.31,56.43l-2.32-10.88v-.03c0-.1.05-.14.14-.14h.9c.11,0,.17.05.18.14l1.73,8.94s.02.03.03.03.02-.01.03-.03l1.71-8.94c.02-.1.08-.14.18-.14h.86c.12,0,.17.06.14.18l-2.32,10.88c-.01.1-.07.14-.18.14h-.91c-.1,0-.15-.05-.18-.14Z"/>
        <path class="cls-1" d="M512.48,46.37h-3.71s-.06.02-.06.06v3.97s.02.06.06.06h2.34c.11,0,.16.05.16.16v.69c0,.11-.05.16-.16.16h-2.34s-.06.02-.06.06v3.98s.02.06.06.06h3.71c.11,0,.16.05.16.16v.67c0,.11-.05.16-.16.16h-4.75c-.11,0-.16-.05-.16-.16v-10.88c0-.11.05-.16.16-.16h4.75c.11,0,.16.05.16.16v.67c0,.11-.05.16-.16.16Z"/>
      </g>
    </g>
  </g>
</svg>